<?xml version="1.0" encoding="UTF-8" standalone="no"?>
<svg
   xmlns:dc="http://purl.org/dc/elements/1.1/"
   xmlns:cc="http://creativecommons.org/ns#"
   xmlns:rdf="http://www.w3.org/1999/02/22-rdf-syntax-ns#"
   xmlns:svg="http://www.w3.org/2000/svg"
   xmlns="http://www.w3.org/2000/svg"
   xmlns:sodipodi="http://sodipodi.sourceforge.net/DTD/sodipodi-0.dtd"
   xmlns:inkscape="http://www.inkscape.org/namespaces/inkscape"
   width="24"
   height="24"
   viewBox="0 0 24 24"
   id="svg2"
   version="1.1"
   inkscape:version="0.91 r13725"
   sodipodi:docname="ic_action_radio.svg">
  <metadata
     id="metadata10">
    <rdf:RDF>
      <cc:Work
         rdf:about="">
        <dc:format>image/svg+xml</dc:format>
        <dc:type
           rdf:resource="http://purl.org/dc/dcmitype/StillImage" />
      </cc:Work>
    </rdf:RDF>
  </metadata>
  <defs
     id="defs8" />
  <sodipodi:namedview
     pagecolor="#ffffff"
     bordercolor="#666666"
     borderopacity="1"
     objecttolerance="10"
     gridtolerance="10"
     guidetolerance="10"
     inkscape:pageopacity="0"
     inkscape:pageshadow="2"
     inkscape:window-width="1920"
     inkscape:window-height="1126"
     id="namedview6"
     showgrid="false"
     inkscape:object-paths="true"
     inkscape:snap-grids="true"
     inkscape:snap-to-guides="false"
     inkscape:object-nodes="true"
     inkscape:zoom="38.333333"
     inkscape:cx="12"
     inkscape:cy="12"
     inkscape:window-x="1366"
     inkscape:window-y="24"
     inkscape:window-maximized="1"
     inkscape:current-layer="svg2">
    <inkscape:grid
       type="xygrid"
       id="grid4138" />
  </sodipodi:namedview>
  <path
     id="path4188"
     style="fill:#ffffff"
     d="m 13,22 -2,0 0,-16 2,0 0,16 z M 15.3,10.3 C 16.2,9.4 16.7,8.2 16.7,7 16.7,5.8 16.2,4.6 15.3,3.7 l -0.8,0.8 c 0.7,0.7 1,1.6 1,2.5 0,0.9 -0.3,1.8 -1,2.5 l 0.8,0.8 z m 0.8,0.9 0.8,0.8 C 18.3,10.6 19,8.8 19,7 19,5.2 18.3,3.4 16.9,2 l -0.8,0.8 c 1.1,1.2 1.7,2.7 1.7,4.2 0,1.5 -0.6,3 -1.7,4.2 z M 8.700001,3.7 c -0.9,0.9 -1.4,2.1 -1.4,3.3 0,1.2 0.5,2.4 1.4,3.3 L 9.5,9.5 C 8.800001,8.8 8.500001,7.9 8.500001,7 c 0,-0.9 0.3,-1.8 0.999999,-2.5 L 8.700001,3.7 Z m -0.8,-0.9 -0.8,-0.8 c -1.4,1.4 -2.1,3.2 -2.1,5 0,1.8 0.7,3.6 2.1,5 l 0.8,-0.8 c -1.1,-1.2 -1.7,-2.7 -1.7,-4.2 0,-1.5 0.6,-3 1.7,-4.2 z" />
</svg>
