<?xml version="1.0" encoding="UTF-8" standalone="no"?>
<!-- Created with Inkscape (http://www.inkscape.org/) -->

<svg
   xmlns:dc="http://purl.org/dc/elements/1.1/"
   xmlns:cc="http://creativecommons.org/ns#"
   xmlns:rdf="http://www.w3.org/1999/02/22-rdf-syntax-ns#"
   xmlns:svg="http://www.w3.org/2000/svg"
   xmlns="http://www.w3.org/2000/svg"
   xmlns:sodipodi="http://sodipodi.sourceforge.net/DTD/sodipodi-0.dtd"
   xmlns:inkscape="http://www.inkscape.org/namespaces/inkscape"
   width="96"
   height="96"
   id="svg2996"
   version="1.1"
   inkscape:version="0.48.3.1 r9886"
   sodipodi:docname="ic_content_wifi_eap.svg"
   inkscape:export-filename="/home/michael/src/lsrntools/extra/ic_content_wifi_eap.png"
   inkscape:export-xdpi="90"
   inkscape:export-ydpi="90">
  <defs
     id="defs2998">
    <clipPath
       clipPathUnits="userSpaceOnUse"
       id="clipPath572">
      <path
         inkscape:connector-curvature="0"
         d="M 0,96 96,96 96,0 0,0 0,96 z"
         id="path574" />
    </clipPath>
    <clipPath
       clipPathUnits="userSpaceOnUse"
       id="clipPath584">
      <path
         inkscape:connector-curvature="0"
         d="M 0,96 96,96 96,0 0,0 0,96 z"
         id="path586" />
    </clipPath>
  </defs>
  <sodipodi:namedview
     id="base"
     pagecolor="#ffffff"
     bordercolor="#666666"
     borderopacity="1.0"
     inkscape:pageopacity="0.0"
     inkscape:pageshadow="2"
     inkscape:zoom="6.6145833"
     inkscape:cx="48"
     inkscape:cy="48"
     inkscape:current-layer="layer1"
     showgrid="true"
     inkscape:grid-bbox="true"
     inkscape:document-units="px"
     inkscape:window-width="1440"
     inkscape:window-height="831"
     inkscape:window-x="0"
     inkscape:window-y="24"
     inkscape:window-maximized="1"
     inkscape:snap-global="false"
     showguides="true"
     objecttolerance="10000"
     gridtolerance="10000"
     guidetolerance="10000">
    <inkscape:grid
       type="xygrid"
       id="grid3004"
       empspacing="12"
       visible="true"
       enabled="true"
       snapvisiblegridlinesonly="true" />
  </sodipodi:namedview>
  <metadata
     id="metadata3001">
    <rdf:RDF>
      <cc:Work
         rdf:about="">
        <dc:format>image/svg+xml</dc:format>
        <dc:type
           rdf:resource="http://purl.org/dc/dcmitype/StillImage" />
        <dc:title></dc:title>
      </cc:Work>
    </rdf:RDF>
  </metadata>
  <g
     id="layer1"
     inkscape:label="Layer 1"
     inkscape:groupmode="layer"
     transform="translate(0,64)">
    <path
       style="fill:#000000;fill-opacity:1;fill-rule:nonzero;stroke:none"
       d="M 12 12 L 12 84 L 58 84 L 58 12 L 46.90625 12 L 12 12 z M 18 18 L 22 18 L 22 22 L 18 22 L 18 18 z M 28 18 L 32 18 L 32 22 L 28 22 L 28 18 z M 38 18 L 42 18 L 42 22 L 38 22 L 38 18 z M 48 18 L 52 18 L 52 22 L 48 22 L 48 18 z M 18 28 L 22 28 L 22 32 L 18 32 L 18 28 z M 28 28 L 32 28 L 32 32 L 28 32 L 28 28 z M 38 28 L 42 28 L 42 32 L 38 32 L 38 28 z M 48 28 L 52 28 L 52 32 L 48 32 L 48 28 z M 18 38 L 22 38 L 22 42 L 18 42 L 18 38 z M 28 38 L 32 38 L 32 42 L 28 42 L 28 38 z M 38 38 L 42 38 L 42 42 L 38 42 L 38 38 z M 48 38 L 52 38 L 52 42 L 48 42 L 48 38 z M 18 48 L 22 48 L 22 51.1875 L 22 52 L 18 52 L 18 48 z M 28 48 L 32 48 L 32 51.1875 L 32 52 L 28 52 L 28 48 z M 38 48 L 42 48 L 42 51.1875 L 42 52 L 38 52 L 38 48 z M 48 48 L 52 48 L 52 51.1875 L 52 52 L 48 52 L 48 48 z M 18 58 L 22 58 L 22 62 L 18 62 L 18 58 z M 28 58 L 32 58 L 32 62 L 28 62 L 28 58 z M 38 58 L 42 58 L 42 62 L 38 62 L 38 58 z M 48 58 L 52 58 L 52 62 L 48 62 L 48 58 z M 30 68 L 34 68 L 34 76 L 30 76 L 30 68 z M 36 68 L 40 68 L 40 76 L 36 76 L 36 68 z "
       transform="translate(0,-64)"
       id="path1420" />
    <path
       inkscape:connector-curvature="0"
       id="path590"
       style="fill:#000000;fill-opacity:1;fill-rule:nonzero;stroke:none"
       d="m 71.513245,4.0615872 c 0,-1.6389953 1.091217,-3.40136683 3.486755,-3.40136683 2.395537,0 3.486391,1.76237153 3.486391,3.40136683 l 0,3.8854669 -6.973146,0 0,-3.8854669 z m 9.507257,3.8854669 0,-3.8854669 c 0,-2.9498296 -2.067016,-5.9362014 -6.020502,-5.9362014 -3.95385,0 -6.02195,2.9863718 -6.02195,5.9362014 l 0,3.8854669 -2.97805,0 L 66,20 l 18,0 0,-12.0529459 -2.979498,0 z" />
  </g>
</svg>
