<?xml version="1.0" encoding="UTF-8" standalone="no"?>
<svg
   xmlns:dc="http://purl.org/dc/elements/1.1/"
   xmlns:cc="http://creativecommons.org/ns#"
   xmlns:rdf="http://www.w3.org/1999/02/22-rdf-syntax-ns#"
   xmlns:svg="http://www.w3.org/2000/svg"
   xmlns="http://www.w3.org/2000/svg"
   xmlns:sodipodi="http://sodipodi.sourceforge.net/DTD/sodipodi-0.dtd"
   xmlns:inkscape="http://www.inkscape.org/namespaces/inkscape"
   width="24"
   height="24"
   viewBox="0 0 24 24"
   id="svg2"
   version="1.1"
   inkscape:version="0.91 r13725"
   sodipodi:docname="ic_content_wifi_unknown.svg">
  <metadata
     id="metadata10">
    <rdf:RDF>
      <cc:Work
         rdf:about="">
        <dc:format>image/svg+xml</dc:format>
        <dc:type
           rdf:resource="http://purl.org/dc/dcmitype/StillImage" />
      </cc:Work>
    </rdf:RDF>
  </metadata>
  <defs
     id="defs8" />
  <sodipodi:namedview
     pagecolor="#ffffff"
     bordercolor="#666666"
     borderopacity="1"
     objecttolerance="10"
     gridtolerance="10"
     guidetolerance="10"
     inkscape:pageopacity="0"
     inkscape:pageshadow="2"
     inkscape:window-width="1920"
     inkscape:window-height="1126"
     id="namedview6"
     showgrid="false"
     inkscape:object-paths="true"
     inkscape:object-nodes="true"
     inkscape:zoom="38.333333"
     inkscape:cx="12"
     inkscape:cy="12"
     inkscape:window-x="1366"
     inkscape:window-y="24"
     inkscape:window-maximized="1"
     inkscape:current-layer="svg2">
    <inkscape:grid
       type="xygrid"
       id="grid4138" />
  </sodipodi:namedview>
  <path
     id="path6"
     d="m 18.99,9.51 c -1.93,0 -3.5,1.57 -3.5,3.5 l 1.75,0 c 0,-0.97 0.78,-1.75 1.75,-1.75 0.97,0 1.75,0.78 1.75,1.75 0,0.48 -0.2,0.92 -0.51,1.24 l -1.09,1.1 c -0.63,0.63 -1.02,1.51 -1.02,2.47 l 0,0.44 1.75,0 c 0,-1.31 0.39,-1.84 1.03,-2.47 l 0.78,-0.8 c 0.5,-0.5 0.82,-1.2 0.82,-1.97 -0.01,-1.94 -1.58,-3.51 -3.51,-3.51 z m -0.95,11.95 1.9,0 0,-1.9 -1.9,0 0,1.9 z M 12,3 C 5.28,3 0.809375,6.66 0.359375,7 L 11.990234,21.490234 12,21.5 l 0.0098,-0.0098 3.783203,-4.714843 a 5,4.956522 0 0 1 -1.802735,-3.808594 5,4.956522 0 0 1 5,-4.9570314 5,4.956522 0 0 1 3.023438,1.0175782 L 23.640625,7 C 23.190625,6.66 18.71,3 12,3 Z"
     style="fill:#ffffff" />
</svg>
