<?xml version="1.0" encoding="UTF-8" standalone="no"?>
<svg
   xmlns:dc="http://purl.org/dc/elements/1.1/"
   xmlns:cc="http://creativecommons.org/ns#"
   xmlns:rdf="http://www.w3.org/1999/02/22-rdf-syntax-ns#"
   xmlns:svg="http://www.w3.org/2000/svg"
   xmlns="http://www.w3.org/2000/svg"
   xmlns:sodipodi="http://sodipodi.sourceforge.net/DTD/sodipodi-0.dtd"
   xmlns:inkscape="http://www.inkscape.org/namespaces/inkscape"
   width="24"
   height="24"
   viewBox="0 0 24 24"
   id="svg2"
   version="1.1"
   inkscape:version="0.91 r13725"
   sodipodi:docname="ic_content_wifi_eap.svg">
  <metadata
     id="metadata10">
    <rdf:RDF>
      <cc:Work
         rdf:about="">
        <dc:format>image/svg+xml</dc:format>
        <dc:type
           rdf:resource="http://purl.org/dc/dcmitype/StillImage" />
      </cc:Work>
    </rdf:RDF>
  </metadata>
  <defs
     id="defs8" />
  <sodipodi:namedview
     pagecolor="#ffffff"
     bordercolor="#666666"
     borderopacity="1"
     objecttolerance="10"
     gridtolerance="10"
     guidetolerance="10"
     inkscape:pageopacity="0"
     inkscape:pageshadow="2"
     inkscape:window-width="1920"
     inkscape:window-height="1126"
     id="namedview6"
     showgrid="true"
     inkscape:snap-bbox="true"
     inkscape:bbox-paths="true"
     inkscape:snap-bbox-edge-midpoints="true"
     inkscape:bbox-nodes="true"
     inkscape:snap-bbox-midpoints="true"
     inkscape:zoom="38.333333"
     inkscape:cx="12"
     inkscape:cy="12"
     inkscape:window-x="1366"
     inkscape:window-y="24"
     inkscape:window-maximized="1"
     inkscape:current-layer="svg2">
    <inkscape:grid
       type="xygrid"
       id="grid4138" />
  </sodipodi:namedview>
  <path
     id="path6"
     d="m 21,16 -3,0 0,-1.5 c 0,-0.83 0.67,-1.5 1.5,-1.5 0.83,0 1.5,0.67 1.5,1.5 l 0,1.5 z m 1,0 0,-1.5 C 22,13.12 20.88,12 19.5,12 18.12,12 17,13.12 17,14.5 l 0,1.5 c -0.55,0 -1,0.45 -1,1 l 0,4 c 0,0.55 0.45,1 1,1 l 5,0 c 0.55,0 1,-0.45 1,-1 l 0,-4 c 0,-0.55 -0.45,-1 -1,-1 z m -14,1 2,0 0,2 -2,0 0,-2 z m -4,0 2,0 0,2 -2,0 0,-2 z m 4,-4 2,0 0,2 -2,0 0,-2 z m -4,0 2,0 0,2 -2,0 0,-2 z m 4,-4 2,0 0,2 -2,0 0,-2 z M 4,9 6,9 6,11 4,11 4,9 Z M 8,5 10,5 10,7 8,7 8,5 Z M 4,5 6,5 6,7 4,7 4,5 Z m -2,-2 0,18 12,0 0,-2 -2,0 0,-2 2,0 0,-2 -2,0 0,-2 2,0 0,-2 -2,0 0,-2 8,0 0,1.050781 c 0.729611,0.0838 1.41548,0.325174 2,0.720703 L 22,7 12,7 12,3 2,3 Z"
     style="fill:#ffffff" />
</svg>
