<?xml version="1.0" encoding="UTF-8" standalone="no"?>
<!-- Created with Inkscape (http://www.inkscape.org/) -->

<svg
   xmlns:dc="http://purl.org/dc/elements/1.1/"
   xmlns:cc="http://creativecommons.org/ns#"
   xmlns:rdf="http://www.w3.org/1999/02/22-rdf-syntax-ns#"
   xmlns:svg="http://www.w3.org/2000/svg"
   xmlns="http://www.w3.org/2000/svg"
   xmlns:sodipodi="http://sodipodi.sourceforge.net/DTD/sodipodi-0.dtd"
   xmlns:inkscape="http://www.inkscape.org/namespaces/inkscape"
   width="96"
   height="96"
   id="svg2996"
   version="1.1"
   inkscape:version="0.48.3.1 r9886"
   sodipodi:docname="ic_content_wifi_wep.svg"
   inkscape:export-filename="/home/michael/src/lsrntools/extra/ic_content_wifi_wep.png"
   inkscape:export-xdpi="90"
   inkscape:export-ydpi="90">
  <defs
     id="defs2998">
    <clipPath
       clipPathUnits="userSpaceOnUse"
       id="clipPath572">
      <path
         inkscape:connector-curvature="0"
         d="M 0,96 96,96 96,0 0,0 0,96 z"
         id="path574" />
    </clipPath>
    <clipPath
       clipPathUnits="userSpaceOnUse"
       id="clipPath584">
      <path
         inkscape:connector-curvature="0"
         d="M 0,96 96,96 96,0 0,0 0,96 z"
         id="path586" />
    </clipPath>
  </defs>
  <sodipodi:namedview
     id="base"
     pagecolor="#ffffff"
     bordercolor="#666666"
     borderopacity="1.0"
     inkscape:pageopacity="0.0"
     inkscape:pageshadow="2"
     inkscape:zoom="6.6145833"
     inkscape:cx="40.125816"
     inkscape:cy="54.579977"
     inkscape:current-layer="layer1"
     showgrid="true"
     inkscape:grid-bbox="true"
     inkscape:document-units="px"
     inkscape:window-width="1440"
     inkscape:window-height="831"
     inkscape:window-x="0"
     inkscape:window-y="24"
     inkscape:window-maximized="1"
     inkscape:snap-global="false"
     showguides="true"
     objecttolerance="10000"
     gridtolerance="10000"
     guidetolerance="10000">
    <inkscape:grid
       type="xygrid"
       id="grid3004"
       empspacing="12"
       visible="true"
       enabled="true"
       snapvisiblegridlinesonly="true" />
  </sodipodi:namedview>
  <metadata
     id="metadata3001">
    <rdf:RDF>
      <cc:Work
         rdf:about="">
        <dc:format>image/svg+xml</dc:format>
        <dc:type
           rdf:resource="http://purl.org/dc/dcmitype/StillImage" />
        <dc:title></dc:title>
      </cc:Work>
    </rdf:RDF>
  </metadata>
  <g
     id="layer1"
     inkscape:label="Layer 1"
     inkscape:groupmode="layer"
     transform="translate(0,64)">
    <path
       style="fill:#000000;fill-opacity:1;fill-rule:nonzero;stroke:none"
       d="M 48 15.625 C 36.294049 15.625 30.15625 24.454099 30.15625 33.1875 L 30.15625 44.6875 L 21.34375 44.6875 L 21.34375 80.375 L 41.21875 80.375 L 44.8125 64.25 L 37.875 64.25 L 41.59375 44.6875 L 37.6875 44.6875 L 37.6875 33.1875 C 37.6875 28.460827 40.754933 23.416144 47.46875 23.15625 L 52.125 16 C 50.837471 15.74118 49.46311 15.625 48 15.625 z M 54.53125 16.6875 L 52.875 24.125 C 56.580846 25.879686 58.3125 29.637098 58.3125 33.1875 L 58.3125 44.6875 L 55.4375 44.6875 L 50.5625 58.0625 L 58.125 58.0625 L 43.59375 80.375 L 74.65625 80.375 L 74.65625 44.6875 L 65.8125 44.6875 L 65.8125 33.1875 C 65.8125 26.259746 61.965999 19.284166 54.53125 16.6875 z "
       transform="translate(0,-64)"
       id="path590" />
  </g>
</svg>
