<?xml version="1.0" encoding="UTF-8" standalone="no"?>
<svg
   xmlns:dc="http://purl.org/dc/elements/1.1/"
   xmlns:cc="http://creativecommons.org/ns#"
   xmlns:rdf="http://www.w3.org/1999/02/22-rdf-syntax-ns#"
   xmlns:svg="http://www.w3.org/2000/svg"
   xmlns="http://www.w3.org/2000/svg"
   xmlns:sodipodi="http://sodipodi.sourceforge.net/DTD/sodipodi-0.dtd"
   xmlns:inkscape="http://www.inkscape.org/namespaces/inkscape"
   width="24"
   height="24"
   viewBox="0 0 24 24"
   id="svg2"
   version="1.1"
   inkscape:version="0.91 r13725"
   sodipodi:docname="ic_content_wifi_psk.svg">
  <metadata
     id="metadata10">
    <rdf:RDF>
      <cc:Work
         rdf:about="">
        <dc:format>image/svg+xml</dc:format>
        <dc:type
           rdf:resource="http://purl.org/dc/dcmitype/StillImage" />
      </cc:Work>
    </rdf:RDF>
  </metadata>
  <defs
     id="defs8" />
  <sodipodi:namedview
     pagecolor="#ffffff"
     bordercolor="#666666"
     borderopacity="1"
     objecttolerance="10"
     gridtolerance="10"
     guidetolerance="10"
     inkscape:pageopacity="0"
     inkscape:pageshadow="2"
     inkscape:window-width="1920"
     inkscape:window-height="1126"
     id="namedview6"
     showgrid="false"
     inkscape:snap-bbox="true"
     inkscape:bbox-nodes="true"
     inkscape:bbox-paths="true"
     inkscape:snap-bbox-edge-midpoints="true"
     inkscape:snap-bbox-midpoints="true"
     inkscape:zoom="38.333333"
     inkscape:cx="12"
     inkscape:cy="12"
     inkscape:window-x="1366"
     inkscape:window-y="24"
     inkscape:window-maximized="1"
     inkscape:current-layer="svg2">
    <inkscape:grid
       type="xygrid"
       id="grid4138" />
  </sodipodi:namedview>
  <path
     id="path6"
     d="m 21,16 -3,0 0,-1.5 c 0,-0.83 0.67,-1.5 1.5,-1.5 0.83,0 1.5,0.67 1.5,1.5 l 0,1.5 z m 1,0 0,-1.5 C 22,13.12 20.88,12 19.5,12 18.12,12 17,13.12 17,14.5 l 0,1.5 c -0.55,0 -1,0.45 -1,1 l 0,4 c 0,0.55 0.45,1 1,1 l 5,0 c 0.55,0 1,-0.45 1,-1 l 0,-4 c 0,-0.55 -0.45,-1 -1,-1 z M 11,3 1,12 l 3,0 0,8 5,0 0,-6 4,0 0,6 1,0 0,-3 c 0,-0.865238 0.402181,-1.613472 1,-2.164062 L 15,14.5 c 0,-2.240471 1.692502,-4.111604 3.851562,-4.433594 L 11,3 Z"
     style="fill:#ffffff" />
</svg>
