<?xml version="1.0" encoding="UTF-8" standalone="no"?>
<!-- Created with Inkscape (http://www.inkscape.org/) -->

<svg
   xmlns:dc="http://purl.org/dc/elements/1.1/"
   xmlns:cc="http://creativecommons.org/ns#"
   xmlns:rdf="http://www.w3.org/1999/02/22-rdf-syntax-ns#"
   xmlns:svg="http://www.w3.org/2000/svg"
   xmlns="http://www.w3.org/2000/svg"
   xmlns:xlink="http://www.w3.org/1999/xlink"
   xmlns:sodipodi="http://sodipodi.sourceforge.net/DTD/sodipodi-0.dtd"
   xmlns:inkscape="http://www.inkscape.org/namespaces/inkscape"
   width="144"
   height="144"
   id="svg2"
   version="1.1"
   inkscape:version="0.48.3.1 r9886"
   sodipodi:docname="ic_launcher.svg"
   inkscape:export-filename="/home/michael/src/lsrntools/res/drawable-xxhdpi/ic_launcher.png"
   inkscape:export-xdpi="89.785667"
   inkscape:export-ydpi="89.785667">
  <defs
     id="defs4">
    <linearGradient
       id="linearGradient3785">
      <stop
         style="stop-color:#3e3e3e;stop-opacity:1;"
         offset="0"
         id="stop3787" />
      <stop
         style="stop-color:#000000;stop-opacity:1;"
         offset="1"
         id="stop3789" />
    </linearGradient>
    <linearGradient
       id="linearGradient3777">
      <stop
         style="stop-color:#b3b3b3;stop-opacity:1;"
         offset="0"
         id="stop3779" />
      <stop
         style="stop-color:#b3b3b3;stop-opacity:0;"
         offset="1"
         id="stop3781" />
    </linearGradient>
    <linearGradient
       id="linearGradient3769">
      <stop
         style="stop-color:#f5f5f5;stop-opacity:1;"
         offset="0"
         id="stop3771" />
      <stop
         style="stop-color:#cccccc;stop-opacity:1;"
         offset="1"
         id="stop3773" />
    </linearGradient>
    <inkscape:perspective
       sodipodi:type="inkscape:persp3d"
       inkscape:vp_x="0 : 526.18109 : 1"
       inkscape:vp_y="0 : 1000 : 0"
       inkscape:vp_z="744.09448 : 526.18109 : 1"
       inkscape:persp3d-origin="372.04724 : 350.78739 : 1"
       id="perspective10" />
    <inkscape:perspective
       id="perspective3185"
       inkscape:persp3d-origin="0.5 : 0.33333333 : 1"
       inkscape:vp_z="1 : 0.5 : 1"
       inkscape:vp_y="0 : 1000 : 0"
       inkscape:vp_x="0 : 0.5 : 1"
       sodipodi:type="inkscape:persp3d" />
    <inkscape:perspective
       id="perspective3999"
       inkscape:persp3d-origin="0.5 : 0.33333333 : 1"
       inkscape:vp_z="1 : 0.5 : 1"
       inkscape:vp_y="0 : 1000 : 0"
       inkscape:vp_x="0 : 0.5 : 1"
       sodipodi:type="inkscape:persp3d" />
    <inkscape:perspective
       id="perspective4023"
       inkscape:persp3d-origin="0.5 : 0.33333333 : 1"
       inkscape:vp_z="1 : 0.5 : 1"
       inkscape:vp_y="0 : 1000 : 0"
       inkscape:vp_x="0 : 0.5 : 1"
       sodipodi:type="inkscape:persp3d" />
    <linearGradient
       inkscape:collect="always"
       xlink:href="#linearGradient3769"
       id="linearGradient3775"
       x1="12"
       y1="72"
       x2="132"
       y2="72"
       gradientUnits="userSpaceOnUse" />
    <radialGradient
       inkscape:collect="always"
       xlink:href="#linearGradient3785"
       id="radialGradient3791"
       cx="72"
       cy="72"
       fx="72"
       fy="72"
       r="60"
       gradientUnits="userSpaceOnUse" />
    <linearGradient
       inkscape:collect="always"
       xlink:href="#linearGradient3769"
       id="linearGradient3821"
       gradientUnits="userSpaceOnUse"
       x1="12"
       y1="72"
       x2="132"
       y2="72"
       gradientTransform="matrix(1.2,0,0,1.2,-14.4,-1104.4346)" />
    <linearGradient
       inkscape:collect="always"
       xlink:href="#linearGradient3769"
       id="linearGradient3823"
       gradientUnits="userSpaceOnUse"
       x1="12"
       y1="72"
       x2="132"
       y2="72"
       gradientTransform="matrix(1.25,0,0,1.25,-18,-245.09054)" />
    <linearGradient
       inkscape:collect="always"
       xlink:href="#linearGradient3769"
       id="linearGradient3826"
       gradientUnits="userSpaceOnUse"
       gradientTransform="matrix(1.2,0,0,1.2,-14.4,-196.07242)"
       x1="12"
       y1="72"
       x2="132"
       y2="72" />
  </defs>
  <sodipodi:namedview
     id="base"
     pagecolor="#ffffff"
     bordercolor="#666666"
     borderopacity="1.0"
     inkscape:pageopacity="0.0"
     inkscape:pageshadow="2"
     inkscape:zoom="4.4097222"
     inkscape:cx="72"
     inkscape:cy="72"
     inkscape:document-units="px"
     inkscape:current-layer="layer1"
     showgrid="true"
     inkscape:window-width="1440"
     inkscape:window-height="831"
     inkscape:window-x="0"
     inkscape:window-y="148"
     inkscape:window-maximized="1">
    <inkscape:grid
       type="xygrid"
       id="grid2816"
       empspacing="12"
       visible="true"
       enabled="true"
       snapvisiblegridlinesonly="true" />
  </sodipodi:namedview>
  <metadata
     id="metadata7">
    <rdf:RDF>
      <cc:Work
         rdf:about="">
        <dc:format>image/svg+xml</dc:format>
        <dc:type
           rdf:resource="http://purl.org/dc/dcmitype/StillImage" />
        <dc:title />
      </cc:Work>
    </rdf:RDF>
  </metadata>
  <g
     inkscape:label="Layer 1"
     inkscape:groupmode="layer"
     id="layer1"
     transform="translate(0,-908.36218)">
    <path
       sodipodi:type="arc"
       style="fill:url(#radialGradient3791);fill-opacity:1;stroke:#afafaf;stroke-width:0;stroke-miterlimit:4;stroke-opacity:1;stroke-dasharray:none;stroke-dashoffset:0"
       id="path4013"
       sodipodi:cx="72"
       sodipodi:cy="72"
       sodipodi:rx="60"
       sodipodi:ry="60"
       d="m 132,72 c 0,33.13708 -26.86292,60 -60,60 -33.137085,0 -60,-26.86292 -60,-60 0,-33.137085 26.862915,-60 60,-60 33.13708,0 60,26.862915 60,60 z"
       transform="translate(0,908.36218)" />
    <rect
       style="fill:#ff8800;fill-opacity:1;stroke:none"
       id="rect3004"
       width="6"
       height="120"
       x="69"
       y="920.36218" />
    <rect
       style="fill:#ff8800;fill-opacity:1;stroke:none"
       id="rect3004-6"
       width="6"
       height="120"
       x="-983.36218"
       y="12"
       transform="matrix(0,-1,1,0,0,0)" />
    <path
       style="fill:url(#linearGradient3826);fill-opacity:1;stroke:#afafaf;stroke-width:0.36000001;stroke-miterlimit:4;stroke-opacity:1;stroke-dasharray:none;stroke-dashoffset:0"
       d="m 72,908.36218 c -39.764503,0 -72,32.2355 -72,72 0,39.76452 32.235497,72.00002 72,72.00002 39.7645,0 72,-32.2355 72,-72.00002 0,-39.7645 -32.2355,-72 -72,-72 z m 0,12 c 33.13708,0 60,26.86291 60,60 0,33.13712 -26.86292,60.00002 -60,60.00002 -33.137086,0 -60,-26.8629 -60,-60.00002 0,-33.13709 26.862914,-60 60,-60 z"
       id="path3819"
       inkscape:connector-curvature="0" />
    <path
       sodipodi:type="arc"
       style="fill:#33b5e5;fill-opacity:1;stroke:none"
       id="path3792"
       sodipodi:cx="42"
       sodipodi:cy="54"
       sodipodi:rx="6"
       sodipodi:ry="6"
       d="m 48,54 a 6,6 0 1 1 -12,0 6,6 0 1 1 12,0 z"
       transform="matrix(0.5,0,0,0.5,60,962.36218)" />
    <path
       sodipodi:type="arc"
       style="fill:#33b5e5;fill-opacity:1;stroke:none"
       id="path3792-2"
       sodipodi:cx="42"
       sodipodi:cy="54"
       sodipodi:rx="6"
       sodipodi:ry="6"
       d="m 48,54 a 6,6 0 1 1 -12,0 6,6 0 1 1 12,0 z"
       transform="matrix(0.5,0,0,0.5,96,968.36218)" />
    <path
       sodipodi:type="arc"
       style="fill:#33b5e5;fill-opacity:1;stroke:none"
       id="path3792-8"
       sodipodi:cx="42"
       sodipodi:cy="54"
       sodipodi:rx="6"
       sodipodi:ry="6"
       d="m 48,54 a 6,6 0 1 1 -12,0 6,6 0 1 1 12,0 z"
       transform="matrix(0.5,0,0,0.5,66,980.36218)" />
    <path
       sodipodi:type="arc"
       style="fill:#33b5e5;fill-opacity:1;stroke:none"
       id="path3792-9"
       sodipodi:cx="42"
       sodipodi:cy="54"
       sodipodi:rx="6"
       sodipodi:ry="6"
       d="m 48,54 a 6,6 0 1 1 -12,0 6,6 0 1 1 12,0 z"
       transform="matrix(0.5,0,0,0.5,90,986.36218)" />
    <path
       sodipodi:type="arc"
       style="fill:#33b5e5;fill-opacity:1;stroke:none"
       id="path3792-1"
       sodipodi:cx="42"
       sodipodi:cy="54"
       sodipodi:rx="6"
       sodipodi:ry="6"
       d="m 48,54 a 6,6 0 1 1 -12,0 6,6 0 1 1 12,0 z"
       transform="matrix(0.5,0,0,0.5,42,944.36218)" />
    <path
       sodipodi:type="arc"
       style="fill:#33b5e5;fill-opacity:1;stroke:none"
       id="path3792-21"
       sodipodi:cx="42"
       sodipodi:cy="54"
       sodipodi:rx="6"
       sodipodi:ry="6"
       d="m 48,54 a 6,6 0 1 1 -12,0 6,6 0 1 1 12,0 z"
       transform="matrix(0.5,0,0,0.5,30,932.36218)" />
    <path
       sodipodi:type="arc"
       style="fill:#33b5e5;fill-opacity:1;stroke:none"
       id="path3792-6"
       sodipodi:cx="42"
       sodipodi:cy="54"
       sodipodi:rx="6"
       sodipodi:ry="6"
       d="m 48,54 a 6,6 0 1 1 -12,0 6,6 0 1 1 12,0 z"
       transform="matrix(0.5,0,0,0.5,18,926.36218)" />
  </g>
</svg>
