<?xml version="1.0" encoding="UTF-8" standalone="no"?>
<svg
   xmlns:dc="http://purl.org/dc/elements/1.1/"
   xmlns:cc="http://creativecommons.org/ns#"
   xmlns:rdf="http://www.w3.org/1999/02/22-rdf-syntax-ns#"
   xmlns:svg="http://www.w3.org/2000/svg"
   xmlns="http://www.w3.org/2000/svg"
   xmlns:sodipodi="http://sodipodi.sourceforge.net/DTD/sodipodi-0.dtd"
   xmlns:inkscape="http://www.inkscape.org/namespaces/inkscape"
   width="24"
   height="24"
   viewBox="0 0 24 24"
   id="svg2"
   version="1.1"
   inkscape:version="0.91 r13725"
   sodipodi:docname="ic_stat_notify_nolocation_l.svg">
  <metadata
     id="metadata10">
    <rdf:RDF>
      <cc:Work
         rdf:about="">
        <dc:format>image/svg+xml</dc:format>
        <dc:type
           rdf:resource="http://purl.org/dc/dcmitype/StillImage" />
        <dc:title></dc:title>
      </cc:Work>
    </rdf:RDF>
  </metadata>
  <defs
     id="defs8" />
  <sodipodi:namedview
     pagecolor="#000000"
     bordercolor="#666666"
     borderopacity="1"
     objecttolerance="10"
     gridtolerance="10"
     guidetolerance="10"
     inkscape:pageopacity="0"
     inkscape:pageshadow="2"
     inkscape:window-width="1920"
     inkscape:window-height="1126"
     id="namedview6"
     showgrid="true"
     inkscape:zoom="38.333333"
     inkscape:cx="2.295652"
     inkscape:cy="12"
     inkscape:window-x="1366"
     inkscape:window-y="24"
     inkscape:window-maximized="1"
     inkscape:current-layer="svg2"
     inkscape:object-nodes="true"
     inkscape:object-paths="true"
     inkscape:snap-smooth-nodes="true">
    <inkscape:grid
       type="xygrid"
       id="grid4138" />
  </sodipodi:namedview>
  <path
     inkscape:connector-curvature="0"
     style="color:#000000;font-style:normal;font-variant:normal;font-weight:normal;font-stretch:normal;font-size:medium;line-height:normal;font-family:sans-serif;text-indent:0;text-align:start;text-decoration:none;text-decoration-line:none;text-decoration-style:solid;text-decoration-color:#000000;letter-spacing:normal;word-spacing:normal;text-transform:none;direction:ltr;block-progression:tb;writing-mode:lr-tb;baseline-shift:baseline;text-anchor:start;white-space:normal;clip-rule:nonzero;display:inline;overflow:visible;visibility:visible;opacity:1;isolation:auto;mix-blend-mode:normal;color-interpolation:sRGB;color-interpolation-filters:linearRGB;solid-color:#000000;solid-opacity:1;fill:#ffffff;fill-opacity:1;fill-rule:nonzero;stroke:none;stroke-width:4;stroke-linecap:butt;stroke-linejoin:miter;stroke-miterlimit:4;stroke-dasharray:none;stroke-dashoffset:0;stroke-opacity:1;color-rendering:auto;image-rendering:auto;shape-rendering:auto;text-rendering:auto;enable-background:accumulate"
     d="M 16.949747,4.052267 C 16.265622,3.3681412 15.476259,2.8544394 14.633697,2.5123763 13.791135,2.1703134 12.895374,2 12,2 11.104626,2.0000001 10.208865,2.1703134 9.3663035,2.5123763 8.5237416,2.8544392 7.7343784,3.3681412 7.0502526,4.052267 6.1221749,4.9803447 5.3929711,6.328267 4.8212088,7.8281069 4.2494472,9.3279462 3.8351265,10.979704 3.5368158,12.515451 c -0.5966214,3.071495 -0.7292039,5.678952 -0.7292039,5.678952 0,0 2.6074563,-0.132583 5.6789513,-0.729204 1.5357478,-0.298311 3.1875048,-0.712632 4.6873448,-1.284393 1.49984,-0.571763 2.847762,-1.300966 3.775839,-2.229044 0.684126,-0.684126 1.197828,-1.473489 1.539891,-2.316051 0.342063,-0.842562 0.512377,-1.7383225 0.512377,-2.6336964 0,-0.895374 -0.170314,-1.7911345 -0.512377,-2.633697 C 18.147575,5.5257559 17.633873,4.7363928 16.949747,4.052267 Z m -1.414213,1.4142136 c 1.973973,1.9739727 1.973973,5.0970944 0,7.0710674 -1.227616,1.227616 -4.51219,2.396975 -7.4301452,2.963772 -1.6156909,0.313839 -1.9892002,0.287701 -2.9900123,0.385318 0.097618,-1.000812 0.071479,-1.374321 0.385318,-2.990012 0.566797,-2.9179556 1.7361558,-6.2025296 2.9637716,-7.4301454 1.9739729,-1.973973 5.0970949,-1.973973 7.0710679,0 z"
     id="path4153" />
</svg>
