<?xml version="1.0" encoding="UTF-8" standalone="no"?>
<!-- Created with Inkscape (http://www.inkscape.org/) -->

<svg
   xmlns:dc="http://purl.org/dc/elements/1.1/"
   xmlns:cc="http://creativecommons.org/ns#"
   xmlns:rdf="http://www.w3.org/1999/02/22-rdf-syntax-ns#"
   xmlns:svg="http://www.w3.org/2000/svg"
   xmlns="http://www.w3.org/2000/svg"
   xmlns:xlink="http://www.w3.org/1999/xlink"
   xmlns:sodipodi="http://sodipodi.sourceforge.net/DTD/sodipodi-0.dtd"
   xmlns:inkscape="http://www.inkscape.org/namespaces/inkscape"
   width="72"
   height="72"
   id="svg2996"
   version="1.1"
   inkscape:version="0.48.3.1 r9886"
   sodipodi:docname="ic_stat_notify_nolocation_l.svg"
   inkscape:export-filename="/home/michael/src/lsrntools/extra/ic_stat_notify_nolocation.png"
   inkscape:export-xdpi="90"
   inkscape:export-ydpi="90">
  <defs
     id="defs2998">
    <radialGradient
       inkscape:collect="always"
       xlink:href="#linearGradient3785"
       id="radialGradient3791"
       cx="72"
       cy="72"
       fx="72"
       fy="72"
       r="60"
       gradientUnits="userSpaceOnUse" />
    <linearGradient
       id="linearGradient3785">
      <stop
         style="stop-color:#3e3e3e;stop-opacity:1;"
         offset="0"
         id="stop3787" />
      <stop
         style="stop-color:#000000;stop-opacity:1;"
         offset="1"
         id="stop3789" />
    </linearGradient>
    <radialGradient
       r="60"
       fy="72"
       fx="72"
       cy="72"
       cx="72"
       gradientUnits="userSpaceOnUse"
       id="radialGradient3926"
       xlink:href="#linearGradient3785"
       inkscape:collect="always" />
    <radialGradient
       inkscape:collect="always"
       xlink:href="#linearGradient3785"
       id="radialGradient3969"
       gradientUnits="userSpaceOnUse"
       cx="72"
       cy="72"
       fx="72"
       fy="72"
       r="60" />
  </defs>
  <sodipodi:namedview
     id="base"
     pagecolor="#000000"
     bordercolor="#666666"
     borderopacity="1.0"
     inkscape:pageopacity="0"
     inkscape:pageshadow="2"
     inkscape:zoom="8.8194444"
     inkscape:cx="8.7051592"
     inkscape:cy="27.203096"
     inkscape:current-layer="layer1"
     showgrid="true"
     inkscape:grid-bbox="true"
     inkscape:document-units="px"
     inkscape:window-width="1366"
     inkscape:window-height="692"
     inkscape:window-x="0"
     inkscape:window-y="24"
     inkscape:window-maximized="1">
    <inkscape:grid
       type="xygrid"
       id="grid3004"
       empspacing="12"
       visible="true"
       enabled="true"
       snapvisiblegridlinesonly="true" />
  </sodipodi:namedview>
  <metadata
     id="metadata3001">
    <rdf:RDF>
      <cc:Work
         rdf:about="">
        <dc:format>image/svg+xml</dc:format>
        <dc:type
           rdf:resource="http://purl.org/dc/dcmitype/StillImage" />
        <dc:title></dc:title>
      </cc:Work>
    </rdf:RDF>
  </metadata>
  <g
     id="layer1"
     inkscape:label="Layer 1"
     inkscape:groupmode="layer"
     transform="translate(0,40)">
    <g
       transform="matrix(0.39062641,0,0,0.39062641,-114.61091,-225.13705)"
       id="_x32__action_help"
       style="fill:#000000">
      <g
         id="g1123"
         style="fill:#000000">
        <path
           style="fill:#000000"
           inkscape:connector-curvature="0"
           d="m 377.54,553.616 v -3.06 c 0,-1.406 0.145,-2.681 0.435,-3.825 0.289,-1.144 0.729,-2.232 1.322,-3.267 0.594,-1.033 1.357,-2.039 2.295,-3.018 0.937,-0.979 2.068,-1.992 3.391,-3.039 1.158,-0.91 2.137,-1.724 2.936,-2.44 0.8,-0.716 1.447,-1.427 1.943,-2.13 0.496,-0.702 0.855,-1.439 1.076,-2.211 0.221,-0.772 0.33,-1.669 0.33,-2.688 0,-1.571 -0.531,-2.867 -1.592,-3.887 -1.062,-1.021 -2.682,-1.53 -4.858,-1.53 -1.902,0 -3.948,0.4 -6.141,1.199 -2.19,0.8 -4.459,1.778 -6.802,2.937 l -4.218,-9.139 c 1.185,-0.688 2.474,-1.344 3.866,-1.964 1.393,-0.621 2.839,-1.172 4.342,-1.654 1.502,-0.481 3.024,-0.861 4.568,-1.137 1.544,-0.276 3.061,-0.414 4.549,-0.414 2.813,0 5.348,0.339 7.608,1.014 2.261,0.676 4.177,1.66 5.747,2.956 1.572,1.296 2.777,2.868 3.619,4.714 0.84,1.848 1.261,3.956 1.261,6.326 0,1.736 -0.193,3.288 -0.579,4.652 -0.386,1.363 -0.957,2.633 -1.715,3.804 -0.76,1.173 -1.71,2.303 -2.854,3.391 -1.145,1.089 -2.475,2.24 -3.99,3.453 -1.158,0.909 -2.103,1.702 -2.834,2.378 -0.73,0.675 -1.302,1.315 -1.715,1.922 -0.414,0.607 -0.696,1.234 -0.848,1.882 -0.152,0.648 -0.228,1.412 -0.228,2.294 v 2.481 H 377.54 z m -1.364,14.142 c 0,-1.295 0.186,-2.391 0.559,-3.287 0.371,-0.896 0.889,-1.619 1.55,-2.171 0.661,-0.552 1.44,-0.95 2.337,-1.198 0.895,-0.249 1.853,-0.373 2.873,-0.373 0.965,0 1.882,0.124 2.75,0.373 0.867,0.248 1.633,0.646 2.295,1.198 0.661,0.552 1.185,1.275 1.57,2.171 0.387,0.896 0.58,1.992 0.58,3.287 0,1.241 -0.193,2.302 -0.58,3.184 -0.386,0.883 -0.909,1.613 -1.57,2.192 -0.662,0.578 -1.428,0.998 -2.295,1.261 -0.868,0.262 -1.785,0.393 -2.75,0.393 -1.021,0 -1.979,-0.131 -2.873,-0.393 -0.896,-0.263 -1.676,-0.683 -2.337,-1.261 -0.661,-0.579 -1.179,-1.31 -1.55,-2.192 -0.374,-0.882 -0.559,-1.943 -0.559,-3.184 z"
           id="path1125" />
      </g>
    </g>
    <path
       inkscape:connector-curvature="0"
       style="fill:#000000;fill-opacity:1;stroke:none"
       d="m 44.750046,-34.998167 c -9.94264,-4.811579 -21.903297,-0.652033 -26.714877,9.290607 -1.695209,3.502978 -2.278682,7.253198 -1.886168,10.85626 L 16,24.410881 46.697403,-0.06789536 c 0.0074,-0.00466 0.0062,-0.023454 0.01361,-0.028129 3.059204,-1.92732904 5.638586,-4.69287974 7.329637,-8.18726494 4.81158,-9.9426407 0.652033,-21.9032977 -9.290606,-26.7148777 z m -2.613641,5.400823 c 6.959848,3.368105 9.871531,11.740565 6.503425,18.700414 -1.183736,2.4460693 -2.997562,4.3918452 -5.139004,5.7409757 L 22.016818,11.977737 22.12257,-15.501615 c -0.274759,-2.522144 0.126775,-5.14022 1.313422,-7.592305 3.368105,-6.959848 11.740565,-9.87153 18.700413,-6.503424 z"
       id="path3831-3" />
  </g>
</svg>
