<?xml version="1.0" encoding="UTF-8" standalone="no"?>
<svg
   xmlns:dc="http://purl.org/dc/elements/1.1/"
   xmlns:cc="http://creativecommons.org/ns#"
   xmlns:rdf="http://www.w3.org/1999/02/22-rdf-syntax-ns#"
   xmlns:svg="http://www.w3.org/2000/svg"
   xmlns="http://www.w3.org/2000/svg"
   xmlns:sodipodi="http://sodipodi.sourceforge.net/DTD/sodipodi-0.dtd"
   xmlns:inkscape="http://www.inkscape.org/namespaces/inkscape"
   width="24"
   height="24"
   viewBox="0 0 24 24"
   id="svg2"
   version="1.1"
   inkscape:version="0.91 r13725"
   sodipodi:docname="ic_stat_notify_nolocation_m.svg">
  <metadata
     id="metadata10">
    <rdf:RDF>
      <cc:Work
         rdf:about="">
        <dc:format>image/svg+xml</dc:format>
        <dc:type
           rdf:resource="http://purl.org/dc/dcmitype/StillImage" />
        <dc:title></dc:title>
      </cc:Work>
    </rdf:RDF>
  </metadata>
  <defs
     id="defs8" />
  <sodipodi:namedview
     pagecolor="#000000"
     bordercolor="#666666"
     borderopacity="1"
     objecttolerance="10"
     gridtolerance="10"
     guidetolerance="10"
     inkscape:pageopacity="0"
     inkscape:pageshadow="2"
     inkscape:window-width="1920"
     inkscape:window-height="1126"
     id="namedview6"
     showgrid="true"
     inkscape:zoom="38.333333"
     inkscape:cx="10.408794"
     inkscape:cy="12"
     inkscape:window-x="1366"
     inkscape:window-y="24"
     inkscape:window-maximized="1"
     inkscape:current-layer="svg2"
     inkscape:object-nodes="true"
     inkscape:object-paths="true"
     inkscape:snap-smooth-nodes="true">
    <inkscape:grid
       type="xygrid"
       id="grid4138" />
  </sodipodi:namedview>
  <path
     style="color:#000000;font-style:normal;font-variant:normal;font-weight:normal;font-stretch:normal;font-size:medium;line-height:normal;font-family:sans-serif;text-indent:0;text-align:start;text-decoration:none;text-decoration-line:none;text-decoration-style:solid;text-decoration-color:#000000;letter-spacing:normal;word-spacing:normal;text-transform:none;direction:ltr;block-progression:tb;writing-mode:lr-tb;baseline-shift:baseline;text-anchor:start;white-space:normal;clip-rule:nonzero;display:inline;overflow:visible;visibility:visible;opacity:1;isolation:auto;mix-blend-mode:normal;color-interpolation:sRGB;color-interpolation-filters:linearRGB;solid-color:#000000;solid-opacity:1;fill:#ffffff;fill-opacity:1;fill-rule:nonzero;stroke:none;stroke-width:4;stroke-linecap:butt;stroke-linejoin:miter;stroke-miterlimit:4;stroke-dasharray:none;stroke-dashoffset:0;stroke-opacity:1;color-rendering:auto;image-rendering:auto;shape-rendering:auto;text-rendering:auto;enable-background:accumulate"
     d="M 12 2 C 11.0325 2 10.111094 2.1949219 9.2734375 2.5488281 C 8.4357813 2.9027344 7.6819531 3.4157031 7.0488281 4.0488281 C 6.4157032 4.6819531 5.9027344 5.4357813 5.5488281 6.2734375 C 5.1949219 7.1110937 5 8.0325 5 9 C 5 10.3125 5.4375 11.78125 6.09375 13.246094 C 6.75 14.710937 7.6250001 16.171875 8.5 17.46875 C 10.25 20.0625 12 22 12 22 C 12 22 13.75 20.0625 15.5 17.46875 C 16.375 16.171875 17.25 14.710937 17.90625 13.246094 C 18.5625 11.78125 19 10.3125 19 9 C 19 8.0325 18.805078 7.1110938 18.451172 6.2734375 C 18.097266 5.4357812 17.584297 4.6819531 16.951172 4.0488281 C 16.318047 3.4157031 15.564219 2.9027344 14.726562 2.5488281 C 13.888906 2.1949219 12.9675 2 12 2 z M 12 4 C 14.791619 4 17 6.2083807 17 9 C 17 10.736111 15.504317 13.885517 13.841797 16.349609 C 12.921249 17.713993 12.638655 17.959621 12 18.736328 C 11.361345 17.959621 11.078751 17.713993 10.158203 16.349609 C 8.495683 13.885517 7 10.736111 7 9 C 7 6.2083807 9.2083807 4 12 4 z "
     id="path4153" />
</svg>
