<?xml version="1.0" encoding="UTF-8" standalone="no"?>
<!-- Created with Inkscape (http://www.inkscape.org/) -->

<svg
   xmlns:dc="http://purl.org/dc/elements/1.1/"
   xmlns:cc="http://creativecommons.org/ns#"
   xmlns:rdf="http://www.w3.org/1999/02/22-rdf-syntax-ns#"
   xmlns:svg="http://www.w3.org/2000/svg"
   xmlns="http://www.w3.org/2000/svg"
   xmlns:sodipodi="http://sodipodi.sourceforge.net/DTD/sodipodi-0.dtd"
   xmlns:inkscape="http://www.inkscape.org/namespaces/inkscape"
   width="72"
   height="72"
   id="svg2996"
   version="1.1"
   inkscape:version="0.48.3.1 r9886"
   sodipodi:docname="stat_notify_record.svg"
   inkscape:export-filename="/home/michael/src/lsrntools/extra/stat_notify_record.png"
   inkscape:export-xdpi="90"
   inkscape:export-ydpi="90">
  <defs
     id="defs2998" />
  <sodipodi:namedview
     id="base"
     pagecolor="#000000"
     bordercolor="#666666"
     borderopacity="1.0"
     inkscape:pageopacity="0"
     inkscape:pageshadow="2"
     inkscape:zoom="8.8194444"
     inkscape:cx="42.033266"
     inkscape:cy="36"
     inkscape:current-layer="layer1"
     showgrid="true"
     inkscape:grid-bbox="true"
     inkscape:document-units="px"
     inkscape:window-width="1440"
     inkscape:window-height="831"
     inkscape:window-x="0"
     inkscape:window-y="148"
     inkscape:window-maximized="1">
    <inkscape:grid
       type="xygrid"
       id="grid3004"
       empspacing="12"
       visible="true"
       enabled="true"
       snapvisiblegridlinesonly="true" />
  </sodipodi:namedview>
  <metadata
     id="metadata3001">
    <rdf:RDF>
      <cc:Work
         rdf:about="">
        <dc:format>image/svg+xml</dc:format>
        <dc:type
           rdf:resource="http://purl.org/dc/dcmitype/StillImage" />
        <dc:title />
      </cc:Work>
    </rdf:RDF>
  </metadata>
  <g
     id="layer1"
     inkscape:label="Layer 1"
     inkscape:groupmode="layer"
     transform="translate(0,40)">
    <path
       style="fill:#ffffff;fill-opacity:1;stroke:#00b900;stroke-width:0;stroke-linejoin:miter;stroke-miterlimit:4;stroke-opacity:1;stroke-dasharray:none;stroke-dashoffset:0"
       d="M 36 3 C 17.774603 3 3 17.774603 3 36 C 3 38.736922 3.3407267 41.394566 3.96875 43.9375 L 10.78125 43.9375 C 10.795064 43.923644 10.844959 43.883045 10.9375 43.75 C 11.122581 43.48391 11.374314 42.96014 11.6875 42.40625 C 12.000686 41.85236 12.402393 41.235945 13.03125 40.71875 C 13.660107 40.201555 14.54014 39.84375 15.5625 39.84375 C 17.749416 39.84375 19.053437 41.274246 19.71875 42.40625 C 20.051407 42.972252 20.286244 43.476697 20.46875 43.75 C 20.560003 43.886651 20.590043 43.924302 20.59375 43.9375 L 30.09375 43.9375 L 30.09375 44.84375 L 30.6875 44.78125 L 32.5 18 L 32.5 17.84375 L 34.6875 17.875 L 34.6875 18 L 36.03125 44.65625 A 1.10011 1.10011 0 0 1 36.0625 44.625 A 1.10011 1.10011 0 0 1 36.0625 44.59375 A 1.10011 1.10011 0 0 1 36.09375 44.5625 A 1.10011 1.10011 0 0 1 36.125 44.5 A 1.10011 1.10011 0 0 1 36.15625 44.4375 A 1.10011 1.10011 0 0 1 36.1875 44.40625 A 1.10011 1.10011 0 0 1 36.21875 44.34375 A 1.10011 1.10011 0 0 1 36.25 44.3125 A 1.10011 1.10011 0 0 1 36.375 44.1875 A 1.10011 1.10011 0 0 1 36.40625 44.15625 A 1.10011 1.10011 0 0 1 36.46875 44.125 A 1.10011 1.10011 0 0 1 36.5 44.09375 A 1.10011 1.10011 0 0 1 36.5625 44.0625 A 1.10011 1.10011 0 0 1 36.78125 43.96875 A 1.10011 1.10011 0 0 1 36.875 43.9375 A 1.10011 1.10011 0 0 1 36.90625 43.9375 A 1.10011 1.10011 0 0 1 36.96875 43.9375 A 1.10011 1.10011 0 0 1 37.21875 43.9375 L 37.34375 43.9375 L 43.4375 43.9375 C 43.346452 43.955719 43.739154 43.70988 44.125 42.96875 C 44.510846 42.22762 44.901527 41.173729 45.34375 40.09375 C 45.785973 39.013771 46.264424 37.928553 46.90625 37 C 47.548076 36.071447 48.460353 35.199103 49.71875 35.15625 C 51.00774 35.112343 52.01793 35.923078 52.71875 36.84375 C 53.41957 37.764422 53.947637 38.903334 54.4375 40 C 54.927363 41.096666 55.395629 42.172779 55.8125 42.9375 C 56.17649 43.605215 56.41784 43.762567 56.4375 43.8125 C 56.444924 43.778038 56.435481 43.771588 56.75 43.5 C 57.190327 43.119777 57.98371 42.549905 59.03125 42.625 C 59.982419 42.693072 60.636847 43.268768 61 43.625 C 61.16507 43.786924 61.252048 43.885248 61.3125 43.9375 L 68.03125 43.9375 C 68.659273 41.394566 69 38.736922 69 36 C 69 17.774603 54.225397 3 36 3 z M 33.4375 36.5 L 32.5 50.34375 L 30.34375 50.53125 L 29.25 46.125 L 20.46875 46.125 L 20.4375 46.125 C 19.574761 46.086542 18.99048 45.469261 18.65625 44.96875 C 18.32202 44.468239 18.076077 43.979715 17.8125 43.53125 C 17.285347 42.63432 16.916082 42.03125 15.5625 42.03125 C 15.007868 42.03125 14.697256 42.166916 14.40625 42.40625 C 14.115244 42.645584 13.854174 43.039423 13.59375 43.5 C 13.333326 43.960577 13.103152 44.492275 12.75 45 C 12.396848 45.507725 11.765574 46.08849 10.90625 46.125 L 10.875 46.125 L 4.5625 46.125 C 8.8362066 59.397507 21.306409 69 36 69 C 50.693591 69 63.163793 59.397507 67.4375 46.125 L 61.34375 46.125 L 61.125 46.125 A 1.10011 1.10011 0 0 1 60.375 45.84375 A 1.10011 1.10011 0 0 1 60.34375 45.8125 C 60.243955 45.75373 60.07386 45.745833 60 45.6875 C 59.756214 45.494949 59.57987 45.327157 59.4375 45.1875 C 59.152759 44.908186 59.048625 44.824926 58.875 44.8125 C 58.652173 44.796526 58.532856 44.889284 58.1875 45.1875 C 57.930505 45.409415 57.518293 45.736225 56.9375 45.9375 A 1.10011 1.10011 0 0 1 56.3125 46.125 A 1.10011 1.10011 0 0 1 56.25 46.125 A 1.10011 1.10011 0 0 1 56.21875 46.125 A 1.10011 1.10011 0 0 1 56.125 46.125 A 1.10011 1.10011 0 0 1 56.09375 46.125 C 56.06765 46.119779 56.05673 46.09964 56.03125 46.09375 A 1.10011 1.10011 0 0 1 55.46875 45.75 C 54.753182 45.345329 54.269463 44.723615 53.875 44 C 53.36392 43.062459 52.908541 41.929531 52.4375 40.875 C 51.966459 39.82047 51.459506 38.83221 50.96875 38.1875 C 50.477994 37.54279 50.143477 37.363726 49.8125 37.375 C 49.523711 37.384834 49.172901 37.592963 48.71875 38.25 C 48.264599 38.907037 47.802587 39.893263 47.375 40.9375 C 46.947413 41.981737 46.545339 43.072567 46.0625 44 C 45.698315 44.699523 45.211074 45.310349 44.53125 45.71875 A 1.10011 1.10011 0 0 1 44.5 45.75 A 1.10011 1.10011 0 0 1 43.875 46.125 A 1.10011 1.10011 0 0 1 43.78125 46.125 A 1.10011 1.10011 0 0 1 43.75 46.125 A 1.10011 1.10011 0 0 1 43.6875 46.125 A 1.10011 1.10011 0 0 1 43.65625 46.125 L 43.46875 46.125 L 37.96875 46.125 L 36.4375 52.59375 A 1.10011 1.10011 0 0 1 36.40625 52.78125 A 1.10011 1.10011 0 0 1 36.40625 52.8125 A 1.10011 1.10011 0 0 1 36.40625 52.84375 A 1.10011 1.10011 0 0 1 36.3125 53 A 1.10011 1.10011 0 0 1 36.125 53.25 A 1.10011 1.10011 0 0 1 36.09375 53.28125 A 1.10011 1.10011 0 0 1 36.03125 53.34375 A 1.10011 1.10011 0 0 1 35.9375 53.40625 A 1.10011 1.10011 0 0 1 35.75 53.5 A 1.10011 1.10011 0 0 1 35.4375 53.5625 A 1.10011 1.10011 0 0 1 35.40625 53.5625 A 1.10011 1.10011 0 0 1 35.21875 53.5625 A 1.10011 1.10011 0 0 1 35.1875 53.5625 A 1.10011 1.10011 0 0 1 35 53.53125 A 1.10011 1.10011 0 0 1 34.96875 53.53125 A 1.10011 1.10011 0 0 1 34.90625 53.46875 A 1.10011 1.10011 0 0 1 34.875 53.46875 A 1.10011 1.10011 0 0 1 34.8125 53.4375 A 1.10011 1.10011 0 0 1 34.78125 53.4375 A 1.10011 1.10011 0 0 1 34.71875 53.375 A 1.10011 1.10011 0 0 1 34.6875 53.375 A 1.10011 1.10011 0 0 1 34.625 53.3125 A 1.10011 1.10011 0 0 1 34.59375 53.28125 A 1.10011 1.10011 0 0 1 34.46875 53.15625 A 1.10011 1.10011 0 0 1 34.46875 53.125 A 1.10011 1.10011 0 0 1 34.40625 53.0625 A 1.10011 1.10011 0 0 1 34.40625 53.03125 A 1.10011 1.10011 0 0 1 34.34375 52.96875 A 1.10011 1.10011 0 0 1 34.34375 52.9375 A 1.10011 1.10011 0 0 1 34.3125 52.84375 A 1.10011 1.10011 0 0 1 34.25 52.625 A 1.10011 1.10011 0 0 1 34.25 52.53125 A 1.10011 1.10011 0 0 1 34.25 52.3125 L 33.4375 36.5 z "
       transform="translate(0,-40)"
       id="path3757" />
  </g>
</svg>
